<?xml version="1.0" encoding="UTF-8"?>
<svg xmlns="http://www.w3.org/2000/svg" xmlns:xlink="http://www.w3.org/1999/xlink" width="462.5pt" height="89.91pt" viewBox="0 0 462.5 89.91" version="1.1">
<g id="surface1">
<path style=" stroke:none;fill-rule:nonzero;fill:rgb(5.099487%,53.29895%,79.199219%);fill-opacity:1;" d="M 24.078125 19.210938 L 30.960938 4.402344 L 71.089844 4.402344 L 62.179688 23.46875 C 41.492188 12.78125 24.078125 19.210938 24.078125 19.210938 M 52.78125 31.613281 C 52.832031 31.914063 53.371094 32.074219 53.371094 32.074219 L 56.628906 33.101563 C 56.628906 33.101563 57.171875 33.339844 56.578125 34.191406 C 54.71875 36.859375 52.289063 38.820313 47.300781 38.820313 C 42.320313 38.820313 39.871094 36.140625 39.871094 32.304688 C 39.871094 29.523438 42.320313 26.949219 45.472656 25.769531 L 65.511719 31.023438 L 65.511719 31.402344 L 53.648438 31.375 C 53.648438 31.375 52.726563 31.320313 52.78125 31.613281 M 46.679688 56.941406 L 30.960938 88.597656 L 0 88.597656 C 3.25 85.414063 24.449219 70.117188 36.144531 61.75 C 39.230469 59.535156 43.871094 56.839844 47.855469 54.695313 Z M 135.292969 51.347656 C 130.804688 51.347656 126.234375 55.050781 124.257813 59.324219 C 122.113281 63.914063 122.457031 67.839844 127.605469 67.839844 C 132.945313 67.839844 137.125 63.574219 139.21875 59.105469 C 141.292969 54.621094 139.757813 51.347656 135.292969 51.347656 M 319.304688 58.980469 L 327.90625 88.597656 L 294.691406 88.597656 L 292.832031 67.300781 L 292.160156 67.300781 L 282.242188 88.597656 L 254.050781 88.597656 L 278.230469 36.707031 L 232.757813 88.597656 L 210.027344 88.597656 L 215.703125 62.8125 L 214.949219 62.8125 L 210.660156 68.9375 L 196.148438 88.597656 L 173.09375 88.597656 L 176.25 37.058594 L 152.238281 88.597656 L 124.597656 88.597656 L 129.027344 80.949219 L 128.382813 80.949219 C 120.703125 86.414063 114.492188 89.910156 106.5 89.910156 C 90.78125 89.910156 89.472656 73.953125 96.023438 59.863281 C 102.847656 45.222656 119.140625 29.277344 135.519531 29.277344 C 142.515625 29.277344 147.136719 31.789063 148.632813 37.46875 L 149.289063 37.46875 L 151.632813 30.582031 L 206.351563 30.582031 L 198 62.8125 L 198.878906 62.8125 L 204.785156 53.207031 L 220.894531 30.582031 L 239.351563 30.582031 L 231.886719 62.8125 L 232.53125 62.8125 L 238.425781 53.207031 L 253.992188 30.582031 L 281.089844 30.582031 L 295.332031 0.00390625 L 323.523438 0.00390625 L 299.246094 52.109375 L 299.898438 52.109375 L 304.476563 47.191406 L 320.964844 30.582031 L 353.839844 30.582031 Z M 462.503906 29.277344 L 449.171875 57.894531 C 447.050781 56.152344 445.625 54.726563 442.023438 54.726563 C 434.6875 54.726563 428.941406 59.105469 425.597656 66.304688 L 415.203125 88.597656 L 387.011719 88.597656 L 414.035156 30.582031 L 442.230469 30.582031 L 437.964844 38.34375 L 438.617188 38.34375 C 447.207031 30.695313 453.109375 29.054688 462.503906 29.277344 M 362.109375 52.328125 L 375.121094 52.328125 C 376.921875 48.398438 375.789063 44.792969 371.800781 44.792969 C 367.605469 44.792969 363.953125 48.28125 362.109375 52.328125 M 351.847656 89.910156 C 333.867188 89.910156 321.71875 80.515625 330.894531 60.523438 C 339.722656 41.289063 359.882813 29.277344 378.058594 29.277344 C 398.390625 29.277344 408.3125 42.601563 396.941406 64.339844 L 356.585938 64.339844 C 354.421875 69.042969 352.765625 74.285156 358.585938 74.285156 C 361.492188 74.285156 364.59375 72.207031 366.394531 69.488281 L 393.40625 69.488281 C 383.332031 83.453125 364.96875 89.910156 351.847656 89.910156 M 116.734375 4.402344 L 78.789063 88.597656 L 38.253906 88.597656 C 38.253906 88.597656 52.804688 56.792969 53.742188 55.003906 L 55.695313 50.800781 C 64.171875 46.910156 72.277344 44.121094 76.058594 44.078125 C 82.949219 44.007813 83.101563 46.566406 83.40625 47.804688 C 83.71875 49.042969 84.347656 48.34375 84.347656 48.34375 C 84.347656 48.34375 86.046875 45.246094 85.660156 42.6875 C 84.261719 33.445313 69.539063 31.613281 69.539063 31.613281 C 68.292969 28.660156 67.058594 26.957031 67.058594 26.957031 L 77.761719 4.402344 L 116.734375 4.402344 "/>
<path style=" stroke:none;fill-rule:nonzero;fill:rgb(5.099487%,53.29895%,79.199219%);fill-opacity:1;" d="M 429.636719 83.011719 L 430.453125 83.011719 C 430.953125 83.011719 431.058594 82.992188 431.21875 82.894531 C 431.402344 82.777344 431.535156 82.503906 431.535156 82.261719 C 431.535156 82.050781 431.429688 81.832031 431.285156 81.699219 C 431.113281 81.5625 431.007813 81.550781 430.429688 81.550781 L 429.636719 81.550781 Z M 429.636719 86.496094 L 428.054688 86.496094 L 428.054688 80.441406 L 430.769531 80.441406 C 431.589844 80.441406 432.050781 80.546875 432.445313 80.851563 C 432.882813 81.152344 433.136719 81.71875 433.136719 82.273438 C 433.136719 82.980469 432.773438 83.527344 432.078125 83.832031 L 433.234375 86.496094 L 431.507813 86.496094 L 430.519531 84.085938 L 429.636719 84.085938 Z M 426.3125 83.46875 C 426.3125 85.839844 428.214844 87.78125 430.546875 87.78125 C 432.894531 87.78125 434.765625 85.839844 434.765625 83.46875 C 434.765625 81.113281 432.894531 79.164063 430.625 79.164063 C 428.199219 79.164063 426.3125 81.042969 426.3125 83.46875 M 435.742188 83.527344 C 435.742188 86.328125 433.386719 88.667969 430.546875 88.667969 C 427.671875 88.667969 425.335938 86.34375 425.335938 83.46875 C 425.335938 80.601563 427.671875 78.257813 430.53125 78.257813 C 433.445313 78.257813 435.742188 80.601563 435.742188 83.527344 "/>
</g>
</svg>
