<?xml version="1.0" encoding="utf-8"?>
<!-- Generator: Adobe Illustrator 19.2.1, SVG Export Plug-In . SVG Version: 6.00 Build 0)  -->
<svg version="1.1" id="layer" xmlns="http://www.w3.org/2000/svg" xmlns:xlink="http://www.w3.org/1999/xlink" x="0px" y="0px"
	 viewBox="0 0 652 652" style="enable-background:new 0 0 652 652;" xml:space="preserve">
<style type="text/css">
	.st0{fill:#1A1A18;}
</style>
<g>
	<g>
		<path class="st0" d="M26.8,287.8h30.9c14.7,0,21.5,7.8,21.5,19.6c0,8.3-3.6,15.8-12.3,17.6v0.2c10.3,1,14.5,9.8,14.5,17.9
			c0,13.6-6.6,23.2-23.7,23.2H26.8V287.8z M47.3,318.6h5c4.2,0,6.5-3.7,6.5-7.9c0-4.4-2.3-8.1-6.5-8.1h-5V318.6z M47.3,351.6H53
			c3.7,0,7.2-3.3,7.2-9.7c0-6.1-3.5-9.4-7.2-9.4h-5.7V351.6z"/>
		<path class="st0" d="M115.3,286.3c20.9,0,28.1,11.4,28.1,40.8c0,29.4-7.1,40.8-28.1,40.8c-20.9,0-28-11.4-28-40.8
			C87.3,297.7,94.4,286.3,115.3,286.3 M115.3,354c6.3,0,7-5.7,7-27c0-21.2-0.7-26.9-7-26.9c-6.3,0-6.9,5.7-6.9,26.9
			C108.4,348.3,109.1,354,115.3,354"/>
		<polygon class="st0" points="151.1,287.8 180.3,287.8 188.6,334.3 188.8,334.3 197.1,287.8 226.3,287.8 226.3,366.3 207.2,366.3 
			207.2,307.8 207,307.8 196.1,366.3 181.3,366.3 170.5,307.8 170.2,307.8 170.2,366.3 151.1,366.3 		"/>
		<path class="st0" d="M235.3,287.8h30.9c14.6,0,21.5,7.8,21.5,19.6c0,8.3-3.6,15.8-12.3,17.6v0.2c10.3,1,14.6,9.8,14.6,17.9
			c0,13.6-6.6,23.2-23.7,23.2h-30.9V287.8z M255.8,318.6h5c4.2,0,6.5-3.7,6.5-7.9c0-4.4-2.3-8.1-6.5-8.1h-5V318.6z M255.8,351.6h5.7
			c3.7,0,7.3-3.3,7.3-9.7c0-6.1-3.5-9.4-7.3-9.4h-5.7V351.6z"/>
		<path class="st0" d="M310.2,287.8h25.7l19.1,78.5h-21.8l-2.1-13.8h-16.3l-2.1,13.8H291L310.2,287.8z M323.1,303.9h-0.2l-5.6,33.3
			h11.5L323.1,303.9z"/>
		<path class="st0" d="M360.6,287.8h32c15.6,0,21.6,8.8,21.6,20.9c0,10.4-4.1,17.3-13.4,18.7v0.2c9.9,0.9,12.8,7.1,12.8,17.6v6.7
			c0,4.1,0,9.3,1,10.9c0.6,0.9,1,1.8,2.3,2.4v1.1h-21.8c-2-4.2-2-11.7-2-14.9v-5.3c0-8.9-1.8-11.2-6.7-11.2h-5.4v31.5h-20.5V287.8z
			 M381.1,321h4.1c5.8,0,8.6-3.7,8.6-9.4c0-6.4-2.5-9.1-8.7-9.1h-3.9V321z"/>
		<path class="st0" d="M423.1,287.8h29.7c23.7,0,24.9,18.7,24.9,39.3c0,20.6-1.2,39.3-24.9,39.3h-29.7V287.8z M443.6,351.6h4.1
			c7.9,0,8.9-3.3,8.9-24.5c0-21.2-1-24.5-8.9-24.5h-4.1V351.6z"/>
		<rect x="485.9" y="287.8" class="st0" width="20.4" height="78.5"/>
		<polygon class="st0" points="515.6,287.8 562.1,287.8 562.1,304.5 536,304.5 536,317.9 560.4,317.9 560.4,334 536,334 536,349.6 
			563.1,349.6 563.1,366.3 515.6,366.3 		"/>
		<path class="st0" d="M570.5,287.8h32c15.6,0,21.5,8.8,21.5,20.9c0,10.4-4,17.3-13.4,18.7v0.2c9.9,0.9,12.9,7.1,12.9,17.6v6.7
			c0,4.1,0,9.3,1,10.9c0.5,0.9,1,1.8,2.3,2.4v1.1h-21.8c-2-4.2-2-11.7-2-14.9v-5.3c0-8.9-1.8-11.2-6.7-11.2H591v31.5h-20.5V287.8z
			 M591,321h4.1c5.9,0,8.6-3.7,8.6-9.4c0-6.4-2.5-9.1-8.7-9.1h-4V321z"/>
	</g>
</g>
</svg>
