<?xml version="1.0" encoding="utf-8"?>
<!-- Generator: Adobe Illustrator 19.0.0, SVG Export Plug-In . SVG Version: 6.00 Build 0)  -->
<svg version="1.1" id="layer" xmlns="http://www.w3.org/2000/svg" xmlns:xlink="http://www.w3.org/1999/xlink" x="0px" y="0px"
	 viewBox="-153 -46 652 652" style="enable-background:new -153 -46 652 652;" xml:space="preserve">
<style type="text/css">
	.st0{fill:#0E284C;}
	.st1{fill-rule:evenodd;clip-rule:evenodd;fill:#FFFFFF;}
</style>
<path class="st0" d="M2.5,258.7c0,37.1-30,67.1-67.1,67.1c-37.1,0-67.1-30-67.1-67.1c0-37.1,30-67.1,67.1-67.1
	C-27.6,191.6,2.5,221.6,2.5,258.7"/>
<path class="st1" d="M-14.3,257.1c-0.8,0.9-2.8,2.6-8,2.6h-37.4c0,0-2.9-0.1-4.8,2.8c-1.2,1.6-4,5.7-4,5.7c-0.6,0.9-2.7,3.9-8.3,3.9
	c-1.2,0-10,0-19.4,0l9-13.1c0,0,1.3-2.4,5.9-2.4h55.1c2.8,0,5.3-0.7,7.3-3.3c1.7-2.2,7.3-10,9.2-12.6h7.5 M-36.6,244.6l2.4-3.4H-126
	c-0.3,1.1-0.6,2.2-0.8,3.4H-36.6z M-99.9,271.8c2.3-3,10-14.3,10.7-15.2c1.8-2.3,3.9-2.8,5.8-2.8c0.7,0,51.3,0,54.9,0
	c5,0,6-1.6,6.6-2.3l8.4-11h-7.1c-1.1,1.7-3.8,5.7-4.8,7.1c-2.4,3.4-6.6,3.1-6.6,3.1s-53.4,0-66,0c-7.6,0-11.1,4.9-11.1,4.9
	l-11.1,16.2C-120.1,271.8-109,271.8-99.9,271.8 M-86.8,246l-4.6,3.3h18.6l3.5-3.3H-86.8z"/>
<path class="st0" d="M62,357.4h-5.4v-17.2H30.4v17.2H25v-38.7h5.4v15.7h26.2v-15.7H62 M105.3,351.6H76.5v-11.4h19.1v-5.8H76.5v-9.9
	h27.5v-5.8h-33v38.7h34.2 M144.1,351.6h-25.2v-32.9h-5.4v38.7h30.7 M151.3,357.4h5.4v-38.7h-5.4V357.4z M204.9,327.5
	c-4.4-6.7-10.6-10-18.8-10c-5.7,0-10.5,1.7-14.3,5.2c-4.4,4-6.6,9-6.6,15.3c0,6.3,2.2,11.5,6.5,15.4c3.8,3.4,8.6,5.1,14.4,5.1
	c4.1,0,7.7-0.7,10.6-2.2c3-1.4,5.6-3.8,8-7l-4.6-3c-3.3,4.2-7.9,6.4-13.6,6.4c-4.8,0-8.6-1.3-11.4-4c-2.8-2.7-4.2-6.2-4.2-10.6
	c0-4.2,1.4-7.7,4.3-10.5c2.8-2.7,6.5-4.1,11-4.1c6,0,10.6,2.1,13.9,6.3L204.9,327.5 M253.3,338c0-6.2-2.2-11.3-6.6-15.3
	c-3.9-3.5-8.6-5.2-14.3-5.2c-5.7,0-10.4,1.7-14.4,5.2c-4.5,4-6.7,9.1-6.7,15.3c0,6.3,2.2,11.4,6.6,15.3c3.9,3.5,8.7,5.2,14.4,5.2
	c5.7,0,10.5-1.7,14.4-5.1C251.1,349.5,253.3,344.3,253.3,338 M247.6,338c0,4.3-1.4,7.9-4.2,10.6c-2.8,2.7-6.5,4.1-11.1,4.1
	c-4.7,0-8.4-1.3-11.2-4c-2.8-2.7-4.2-6.2-4.2-10.6c0-4.2,1.4-7.7,4.3-10.5c2.9-2.8,6.6-4.1,11.1-4.1c4.2,0,7.6,1.2,10.4,3.6
	C246,329.8,247.6,333.5,247.6,338 M261.5,318.7v38.7h5.4v-14.7h19.5c3.9,0,6.8-1,8.9-3c2-2,3-5,3-8.8c0-3.7-1-6.6-2.9-8.8
	c-2-2.2-4.6-3.3-7.9-3.3 M266.9,336.9v-12.4h19.2c4.4,0,6.6,2.1,6.6,6.4c0,4-2.1,6-6.3,6H266.9z M339.3,318.7h-36.7v5.8h15.6v32.9
	h5.4v-32.9h15.6 M379.9,351.6h-28.8v-11.4h19.1v-5.8H351v-9.9h27.5v-5.8h-33v38.7h34.2 M416.3,342.3c2.6-0.5,4.6-1.7,6.1-3.5
	c1.6-2,2.4-4.6,2.4-7.9c0-3.7-1-6.7-2.9-8.9c-2-2.2-4.6-3.3-8.1-3.3H388v38.7h5.4v-14.7h16.5l8.8,14.7h6.3 M393.4,336.9v-12.4h19.1
	c4.5,0,6.8,2.1,6.8,6.4c0,4-2.1,6-6.3,6H393.4z M466.3,323.5c-4.8-3.8-10.7-5.7-17.7-5.7c-5.2,0-9.3,1.1-12.2,3.2
	c-2.9,2.1-4.3,5-4.3,8.6c0,3.5,1.3,6,3.8,7.5c2.2,1.3,5.9,2.1,11.3,2.6c6.1,0.5,9.8,0.9,11.2,1.3c2.6,0.8,4,2.5,4,4.9
	c0,2.1-1,3.8-3,5c-2.1,1.2-5.1,1.9-8.9,1.9c-5.9,0-11.4-1.9-16.5-5.6l-3,4.6c4.6,4.3,11.1,6.5,19.5,6.5c5.7,0,10.2-1.1,13.2-3.4
	c3.1-2.2,4.6-5.4,4.6-9.5c0-3.2-1-5.7-2.9-7.4c-2-1.7-5-2.9-9.1-3.6c-1.4-0.2-4.4-0.5-8.9-0.9c-3.1-0.2-5.3-0.6-6.6-1.2
	c-1.9-0.8-2.8-2-2.8-3.7c0-1.6,0.9-2.9,2.7-3.8c1.8-0.9,4.3-1.4,7.7-1.4c5,0,10,1.5,14.8,4.4 M127,219.3h19.8V299H127 M227.1,245.7
	c0,11.3-5.8,20.7-18.1,24.5c-0.1,0,16.9,28.9,16.9,28.9h-19.7l-24.9-44.2h16.4c7,0,10-4.1,10-9.2c0-5.1-2.9-9.4-9.8-9.4h-23.5
	l0,62.9l-19.2,0v-79.7h41.4C217.1,219.4,227.1,231.2,227.1,245.7 M81.1,219.2l41.8,79.7H99l-25.7-52.1L63,268.7h10.9l8.5,17.5H55
	l-6,12.8l-23.9,0l40.3-79.7L81.1,219.2z M439.1,250.1c20.1,4.4,28.4,13.6,28.4,25.5c0,13.4-9.8,25-33.9,25
	c-14.5,0-26.6-4.3-38.3-9.8l5.9-15.8c9.8,4.2,20.2,7.8,30.9,7.8c8.3,0,14.5-1.8,14.5-6.5c0-4.8-4.2-6.7-19.5-10
	c-19.8-4.2-29.8-10.3-29.8-24.2c0-13.9,12.2-25.3,31.6-25.3c14.8,0,26,3.7,35.4,7.6l-6.3,16.2c-6.2-3.7-16.6-7.4-25.3-7.4
	c-9.2,0-15,2.3-15,6.8C417.6,245.1,423,246.6,439.1,250.1 M389.2,219.1l0,44.9c0,28.7-16.9,37-37.7,37c-20.8,0-37.7-8.4-37.7-37
	v-44.9h19.9l0,44.8c0,13.7,7.9,19.4,17.8,19.4c9.8,0,17.8-5.8,17.8-19.4l0-44.8H389.2z M297.4,258c5.5,3,10.5,9.2,10.5,17.6
	c0,12.9-11.3,23.4-25,23.4l0,0h-48.5v-79.7h46.7c12.9,0,23.4,10,23.4,22.5C304.5,248.4,302.6,254.4,297.4,258 M253.6,249.6h27.3
	c3.8,0,7.1-3,7.1-6.8c0-3.8-3.2-6.7-7-6.7h-27.5V249.6z M281.6,282.1c4.6,0,8.3-3.6,8.3-7.9c0-4.3-3.7-7.7-8.3-7.8h-28v15.7
	L281.6,282.1"/>
</svg>
