<?xml version="1.0" encoding="utf-8"?>
<!-- Generator: Adobe Illustrator 19.0.0, SVG Export Plug-In . SVG Version: 6.00 Build 0)  -->
<svg version="1.1" id="Layer_1" xmlns="http://www.w3.org/2000/svg" xmlns:xlink="http://www.w3.org/1999/xlink" x="0px" y="0px"
	 viewBox="0 0 500 500" style="enable-background:new 0 0 500 500;" xml:space="preserve">
<style type="text/css">
	.st0{fill:#003767;}
</style>
<g id="XMLID_28_">
	<path id="XMLID_35_" class="st0" d="M339.9,238.7c-5.8,0-9.8,2.7-9.8,2.7c-4,2.7-4,6.6-4,6.6c0,1.9,1.2,3.2,1.2,3.2
		c1.2,1.3,3.1,1.3,3.1,1.3c1.7,0,2.9-1.2,2.9-1.2c1.2-1.2,1.2-2.8,1.2-2.8c0-1.9-1.6-2.9-1.6-2.9l-1.1-0.8l-0.2-0.7
		c0-0.5,0.5-1.1,0.5-1.1c0.5-0.7,1.4-1.2,1.4-1.2c2.6-1.6,6-1.6,6-1.6c4.3,0,6,2,6,2c1.6,2,1.6,7.4,1.6,7.4l-0.1,5.2l-7.4,1.4
		c-7.5,1.4-11.4,4.6-11.4,4.6c-3.9,3-3.9,7.4-3.9,7.4c0,4,2.7,6.4,2.7,6.4c2.7,2.4,7.3,2.4,7.3,2.4c4.4,0,7.6-2.2,7.6-2.2
		c3.2-2.1,5-6.3,5-6.3c0.2,4.7,1.7,6.7,1.7,6.7c1.6,1.9,5.3,1.9,5.3,1.9c3.9,0,5.8-2.5,5.8-2.5c1.8-2.5,1.8-7.8,1.8-7.8v-0.7h-1.5
		c-0.1,4.5-1,6.5-1,6.5c-1,2-3,2-3,2c-1,0-1.4-0.9-1.4-0.9c-0.4-0.9-0.4-3-0.4-3v-18.8c0-3.9-0.9-6.3-0.9-6.3c-0.9-2.4-3-3.9-3-3.9
		c-1.9-1.3-4.7-2.1-4.7-2.1C342.9,238.7,339.9,238.7,339.9,238.7z M347,256.1v2.1c0,5.1-0.4,7.2-0.4,7.2c-0.5,2.2-2,4.5-2,4.5
		c-1.3,2-3.4,3.3-3.4,3.3c-2.1,1.3-4,1.3-4,1.3c-2.1,0-3.4-1.8-3.4-1.8c-1.2-1.8-1.2-5.1-1.2-5.1c0-4.8,2.8-7.5,2.8-7.5
		c1.7-1.6,4.4-2.5,4.4-2.5C342.3,256.8,347,256.1,347,256.1z"/>
	<path id="XMLID_36_" class="st0" d="M394.4,239.9c0,0,2.4,1.2,3.6,3.3l1.1,2.7l0.7,4.2c0,0,1.6-5.6,5.2-8.5c0,0,3.5-2.9,8.8-2.9
		c0,0,6.4,0,9.3,3.6c0,0,1.3,1.7,1.6,3.4c0,0,0.4,1.6,0.4,5.8v17.3c0,0,0,3.4,1.3,4.5c0,0,1.3,1.1,6.1,1.4v1.2h-22.1v-1.2
		c0,0,4.8-0.4,6.1-1.4c0,0,1.3-1.1,1.3-4.5v-17.5c0,0,0-6.4-1-8.2c0,0-1-1.8-4.5-1.8c0,0-3.9,0-6.9,2.4c0,0-3,2.3-4.1,6.4
		c0,0-0.8,2.8-1.1,5.7c0,0-0.3,2.9-0.3,8v4.9c0,0,0,3.4,1.4,4.6c0,0,1.3,1.1,6.1,1.4v1.2h-22.1v-1.2c0,0,4.8-0.4,6.1-1.4
		c0,0,1.3-1.1,1.3-4.5v-20.4c0,0,0-3.7-1.3-5.4c0,0-1.3-1.7-4.2-1.7c0,0-3.4,0-6.2,2.1c0,0-2.9,2.2-4.3,6c0,0-1.2,3.1-1.6,6.1
		c0,0-0.4,3.1-0.4,8.9v4.3c0,0,0,3.4,1.3,4.6c0,0,1.4,1.1,6.1,1.4v1.2h-22.1v-1.2c0,0,4.8-0.4,6.1-1.4c0,0,1.3-1.1,1.3-4.5v-21.9
		c0,0,0-2.9-0.4-3.9c0,0-0.4-0.9-1.7-1.4l-5.4-0.7v-1.3l14.7-0.9v11.4c0,0,1.9-5.5,5.6-8.4c0,0,3.6-3,8.5-3
		C388.9,238.7,391.9,238.7,394.4,239.9"/>
	<path id="XMLID_37_" class="st0" d="M174.4,223.1v45.5c0,0,0,3.5,1.3,4.6c0,0,1.2,1,5.4,1.4c0,0,4.1-0.4,5.4-1.4
		c0,0,1.3-1.1,1.3-4.5v-27.5h-7.5v-1.5h7.5c0,0,0.4-4.8,1.5-7.7c0,0,1.2-3,3.6-5.2c0,0,3.8-3.7,9.1-3.7c0,0,3.9,0,6.6,1.9
		c0,0,2.6,1.9,2.6,4.8c0,0,0,1.8-1.1,2.9c0,0-1,1.1-2.8,1.1c0,0-1.8,0-2.8-1c0,0-1-1.1-1-2.9c0,0,0-1.1,1-2.7l0.3-0.8
		c0,0,0-0.8-1-1.3c0,0-1-0.6-2.3-0.6c0,0-3.8,0-5.2,2.7c0,0-1.3,2.6-1.3,9.8v2.6h10.1v1.5h-10.1v27.5c0,0-0.1,3.4,1.3,4.5
		c0,0,1.3,1.1,6,1.4v1.2l-47,0.3l-5.5,0.4l-1.4,0.2v-11.1c0,0-1.1,2.7-2,4.1l-2.2,2.8c0,0-1.9,2.1-4.7,3.3c0,0-2.7,1.1-5.6,1.1
		c0,0-2.6,0-4.7-0.9c0,0-2.2-1-3.4-2.7c0,0-1.4-1.8-1.9-4c0,0-0.5-2.3-0.5-6.2v-16.2c0,0,0-3-0.4-3.9c0,0-0.4-0.9-1.8-1.4l-5.8-0.7
		v-1.3l15.2-0.9v26.2c0,0,0,5,1.3,7.4c0,0,1.4,2.4,4.2,2.4c0,0,3.3,0,6.3-2.8c0,0,3.1-2.8,4.6-7.2c0,0,1.4-3.9,1.4-10.4v-7.5
		c0,0,0-3-0.3-3.9c0,0-0.4-0.9-1.7-1.4l-5.6-0.7v-1.3l15-0.9v30c0,0,0,3.5,1.3,4.6c0,0,1.1,0.9,4.3,1.3c0,0,3.2-0.4,4.2-1.3
		c0,0,1.4-1.1,1.4-4.5v-37.3c0,0,0-3-0.4-3.9c0,0-0.4-0.9-1.7-1.3l-5.4-0.8v-1.2h0.5l7.5-0.5l6-0.5L174.4,223.1"/>
	<path id="XMLID_38_" class="st0" d="M231.1,239.2v13.6h-1.2c0,0-0.9-5.9-4.1-9.3c0,0-3.1-3.3-7.8-3.3c0,0-3.1,0-5.3,1.6
		c0,0-2.1,1.6-2.1,4c0,0,0,2.4,2,3.8c0,0,2,1.4,8.8,3.6l5.3,1.8c0,0,1.4,0.6,2.9,1.5c0,0,1.9,1.2,3.1,3.4c0,0,1.1,2.2,1.1,4.7
		c0,0,0,5.1-4.1,8.6c0,0-4.1,3.5-10.2,3.5c0,0-5.1,0-9.3-2.6l-2.6-1.7l-0.5-0.2c0,0-0.7,0-1.1,1.2l-0.3,1.1l-0.6,2h-1.2v-16.5h1.2
		c0,0,4.2,15.3,14.4,15.3c0,0,3.6,0,6.1-2.1c0,0,2.6-2.1,2.6-5.2c0,0,0-3-1.8-4.4c0,0-1.8-1.4-8.7-3.7c0,0-5.5-1.7-8-3.2
		c0,0-4.6-2.7-4.6-7.5c0,0,0-4.5,3.8-7.6c0,0,3.8-3.1,9.3-3.1c0,0,4.4,0,8.4,2.3c0,0,1.4,0.9,1.8,0.9c0,0,0.5,0,0.8-0.6l0.8-2.1
		H231.1"/>
	<path id="XMLID_39_" class="st0" d="M267.3,239.2l6.9-0.5v8.1c0,0,1.6-4.1,4.1-6.1c0,0,2.6-2,6.3-2c0,0,3.3,0,5.5,1.7
		c0,0,2.1,1.7,2.1,4.5c0,0,0,2-1.3,3.4c0,0-1.3,1.4-3.1,1.4c0,0-1.9,0-3.2-1.2c0,0-1.3-1.3-1.3-3.1c0,0,0-1.2,0.4-1.9l1.5-1.6
		l0.3-0.5c0,0,0-0.4-0.6-0.6l-1.5-0.3c0,0-2.2,0-4.2,1.7c0,0-2,1.6-3.1,4.4c0,0-1.1,2.7-1.5,5.5c0,0-0.4,2.8-0.4,7.4v9.1
		c0,0,0,3.4,1.4,4.6c0,0,1.4,1.1,6.4,1.4v1.2h-22.6v-1.2c0,0,4.8-0.4,6.1-1.4c0,0,1.3-1.1,1.3-4.5v-21.9c0,0,0-3-0.4-3.9
		c0,0-0.4-0.9-1.8-1.4l-5.8-0.7v-1.3L267.3,239.2"/>
	<path id="XMLID_40_" class="st0" d="M244.5,231.4c0,0,0.8-2.9,1.2-8.3h1.3v16.5h11.4v1.6H247v24.4c0,0,0,5.3,1,7.1
		c0,0,0.9,1.7,3.8,1.7c0,0,3.6,0,5.2-2.7c0,0,1.5-2.7,1.8-9.4l0.1-1h1.5v0.9c0,0,0,3.5-0.4,5.7c0,0-0.4,2-1.3,3.9
		c0,0-1.2,2.4-3.6,3.7c0,0-2.4,1.3-5.5,1.3c0,0-3.1,0-5.5-1.3c0,0-2.5-1.3-3.4-3.4c0,0-0.9-1.9-1-4.6v-26.4h-7.5v-1.4
		c0,0,7-0.4,9.9-3.9C242.2,236,243.7,234.3,244.5,231.4"/>
	<path id="XMLID_41_" class="st0" d="M79.9,231c0,0-3.9,6.4-3.9,18.8c0,0,0,12.9,3.7,19.2c0,0,3.6,6.3,11.1,6.3c0,0,2.9,0,5.5-1
		c0,0,2.6-1,4.4-2.7c0,0,1.9-1.9,2.8-4.6c0,0,0.9-2.6,0.9-6.6v-3.3c0,0,0-4-1.2-5.1c0,0-1.3-1.1-6.8-1.4v-1.3h24.1v1.2
		c0,0-5.8,0.5-7.1,1.5c0,0-1.4,1-1.4,5.1v19.1h-1.2c0,0-1-4.2-1.8-5.8c0,0-0.9-1.7-2-1.7c0,0-0.8,0-2.3,1.4c0,0-3.7,3.7-6.7,5.2
		c0,0-3,1.4-7.1,1.4c0,0-9,0-16.2-8.2c0,0-7.2-8.2-7.2-18.5c0,0,0-10.5,7.3-18.8c0,0,7.3-8.3,16.6-8.3c0,0,5.6,0,10.4,3.4l1.6,1.2
		c0,0,1.4,0.9,2.2,0.9c0,0,1.6,0,3-5h1.3l0.2,20.2h-1.2l-2-6l-2.4-4.8c0,0-2.5-4.4-5.6-6.3c0,0-3.1-1.9-7.5-1.9
		C91.3,224.7,83.8,224.7,79.9,231"/>
	<path id="XMLID_45_" class="st0" d="M308.1,238.8c-7.2,0-12.6,5.7-12.6,5.7C290,250.3,290,258,290,258c0,8,5.4,13.5,5.4,13.5
		c5.4,5.5,13.3,5.5,13.3,5.5c6.2,0,10.2-3.5,10.2-3.5c3.9-3.5,4.8-9.8,4.8-9.8h-1.5c-0.9,5.8-4.3,8.9-4.3,8.9c-3.4,3-9,3-9,3
		c-5.7,0-8.3-3.7-8.3-3.7c-2.7-3.7-2.7-11.4-2.7-11.4l0.1-3.8l25.4,0.1l0.1-1.6c0-7.1-4.3-11.6-4.3-11.6
		C314.8,238.8,308.1,238.8,308.1,238.8z M307.9,240.4c8.1,0,8.1,10.4,8.1,10.4c0,2.9-0.9,3.6-0.9,3.6c-0.8,0.7-2.6,0.7-2.6,0.7
		h-14.4c0.4-7.9,2.7-11.3,2.7-11.3C303.1,240.4,307.9,240.4,307.9,240.4z"/>
</g>
</svg>
