<?xml version="1.0" encoding="utf-8"?>
<!-- Generator: Adobe Illustrator 19.2.1, SVG Export Plug-In . SVG Version: 6.00 Build 0)  -->
<svg version="1.1" id="layer" xmlns="http://www.w3.org/2000/svg" xmlns:xlink="http://www.w3.org/1999/xlink" x="0px" y="0px"
	 viewBox="0 0 652 652" style="enable-background:new 0 0 652 652;" xml:space="preserve">
<style type="text/css">
	.st0{fill:#FFFFFF;}
	.st1{fill:#FDBE56;}
	.st2{fill:#273576;}
</style>
<g>
	<path class="st0" d="M228.3,407.1c-38.4,38.4-85.7,35.8-85.7,35.8l-0.1-121.6l121.4,0C263.8,321.3,266.7,368.7,228.3,407.1"/>
	<path class="st0" d="M56.7,235.4c-38.4,38.4-35.5,85.7-35.5,85.7l121.3,0.2l0-121.6C142.5,199.7,95.1,197,56.7,235.4"/>
	<path class="st1" d="M114.7,321.2c0,0-0.9-10.7,8.1-19.7c9-9,19.8-8.1,19.8-8.1l0,27.9L114.7,321.2z"/>
	<path class="st1" d="M56.4,321.2c0,0-1.9-33.7,25.2-60.8c27.1-27.1,60.9-25.2,60.9-25.2v31.7c0,0-21.2-1.3-38.4,15.9
		c-17.2,17.2-15.9,38.5-15.9,38.5L56.4,321.2z"/>
	<path class="st1" d="M20.9,321.1c0,0-2.6-47.7,35.6-85.9c38.2-38.2,86-35.6,86-35.6v8.7c0,0-44.3-2.4-79.8,33.1
		c-35.5,35.5-33,79.7-33,79.7L20.9,321.1z"/>
	<path class="st1" d="M142.6,349.2c0,0,10.7,0.9,19.7-8.1c9-9,8.1-19.8,8.1-19.8l-27.9,0L142.6,349.2z"/>
	<path class="st1" d="M142.6,407.4c0,0,33.7,1.9,60.8-25.2c27.1-27.1,25.2-60.9,25.2-60.9l-31.7,0c0,0,1.3,21.2-15.9,38.5
		c-17.2,17.2-38.4,15.9-38.4,15.9L142.6,407.4z"/>
	<path class="st1" d="M142.7,442.9c0,0,47.7,2.6,85.9-35.6c38.2-38.2,35.4-86,35.4-86l-8.5,0c0,0,2.4,44.4-33.1,79.8
		c-35.5,35.5-79.7,33-79.7,33L142.7,442.9z"/>
	<polygon class="st2" points="280.2,321.2 282.3,321.2 284.3,321.2 284.3,327.2 292,327.2 292,321.2 294,321.2 296.1,321.2 
		296.1,337.3 294,337.3 292,337.3 292,330.5 284.3,330.5 284.3,337.3 282.3,337.3 280.2,337.3 	"/>
	<polygon class="st2" points="300.4,337.3 300.4,321.2 314.5,321.2 314.5,322.7 314.5,324.2 304.5,324.2 304.5,327.5 313.6,327.5 
		313.6,328.9 313.6,330.3 304.5,330.3 304.5,334.2 314.9,334.2 314.9,335.9 314.9,337.3 	"/>
	<polygon class="st2" points="317.9,337.3 317.9,321.2 320,321.2 322.1,321.2 322.1,334.5 330.3,334.5 330.3,335.9 330.3,337.3 	"/>
	<polygon class="st2" points="333.4,321.2 335.5,321.2 337.5,321.2 337.5,337.3 335.5,337.3 333.4,337.3 	"/>
	<path class="st2" d="M365.1,335.5c-1.7-1.5-2.5-3.6-2.5-6.2c0-2.6,0.8-4.7,2.5-6.2c1.7-1.5,4-2.3,6.9-2.3c2.9,0,5.2,0.8,6.9,2.3
		c1.7,1.5,2.5,3.6,2.5,6.2c0,2.6-0.8,4.6-2.5,6.2c-1.7,1.5-4,2.3-6.9,2.3C369,337.7,366.7,337,365.1,335.5 M375.8,333.2
		c1-1,1.4-2.3,1.4-3.9c0-1.7-0.5-3-1.4-4c-1-1-2.2-1.5-3.9-1.5c-1.6,0-2.9,0.5-3.9,1.5c-1,1-1.4,2.3-1.4,4c0,1.7,0.5,3,1.4,3.9
		c1,1,2.2,1.5,3.9,1.5C373.5,334.7,374.8,334.2,375.8,333.2"/>
	<polygon class="st2" points="407.2,324.1 401.7,324.1 401.7,322.7 401.7,321.2 416.7,321.2 416.7,322.7 416.7,324.1 411.4,324.1 
		411.4,337.3 409.3,337.3 407.2,337.3 	"/>
	<polygon class="st2" points="419.1,337.3 419.1,321.2 433.1,321.2 433.1,322.7 433.1,324.2 423.2,324.2 423.2,327.5 432.2,327.5 
		432.2,328.9 432.2,330.3 423.2,330.3 423.2,334.2 433.4,334.2 433.4,335.9 433.4,337.3 	"/>
	<path class="st2" d="M436.7,321.2h2h7.2c2.2,0,3.9,0.4,5,1.1c1.2,0.8,1.7,1.9,1.7,3.3c0,1.4-0.6,2.5-1.7,3.3
		c-0.3,0.2-0.7,0.4-1.2,0.6c0.2,0.1,0.4,0.1,0.5,0.2c1.3,0.6,1.9,1.7,1.9,3.3v1.8c0,0.7,0.1,1.1,0.2,1.4c0.1,0.3,0.3,0.4,0.6,0.6
		v0.4h-4.5c-0.1-0.3-0.3-0.7-0.3-1.3c-0.1-0.5-0.1-1.1-0.1-1.6l0-0.8c0-0.9-0.2-1.5-0.6-1.9c-0.4-0.4-1.2-0.6-2.2-0.6h-4.5v6.1h-2.1
		h-2.1V321.2z M440.8,328.4h4.7c1.1,0,1.9-0.2,2.4-0.5c0.5-0.4,0.8-0.9,0.8-1.6c0-0.7-0.2-1-0.7-1.4c-0.5-0.4-1.2-0.5-2.2-0.5h-4.9
		V328.4z"/>
	<path class="st2" d="M483.1,331.3c-0.3,1.8-1.6,3.8-3.1,4.9c-1.5,1.1-4.4,1.6-6.6,1.6c-2.8,0-5-0.8-6.6-2.3
		c-1.6-1.5-2.5-3.6-2.5-6.2c0-2.6,0.8-4.7,2.5-6.2c1.6-1.5,3.8-2.3,6.6-2.3c2.3,0,5.1,0.5,6.6,1.5c1.5,1,2.5,2.7,2.8,4.5h-4
		c-0.1-0.9-0.9-1.6-1.6-2.1c-0.8-0.5-2.7-0.8-3.9-0.8c-1.5,0-2.7,0.5-3.6,1.5c-0.9,1-1.3,2.1-1.3,3.8c0,1.7,0.4,2.8,1.3,3.8
		c0.9,1,2.1,1.5,3.6,1.5c1.2,0,3.1-0.3,3.8-0.8c0.8-0.5,1.6-1.6,1.8-2.5H483.1z"/>
	<path class="st2" d="M488.4,335.5c-1.7-1.5-2.5-3.6-2.5-6.2c0-2.6,0.8-4.7,2.5-6.2c1.7-1.5,4-2.3,6.9-2.3c2.9,0,5.2,0.8,6.9,2.3
		c1.7,1.5,2.5,3.6,2.5,6.2c0,2.6-0.8,4.6-2.5,6.2c-1.7,1.5-4,2.3-6.9,2.3C492.3,337.7,490.1,337,488.4,335.5 M499.1,333.2
		c1-1,1.4-2.3,1.4-4c0-1.7-0.5-3-1.4-4c-1-1-2.2-1.5-3.9-1.5c-1.6,0-2.9,0.5-3.9,1.5c-1,1-1.4,2.3-1.4,4c0,1.7,0.5,3,1.4,4
		c1,1,2.2,1.5,3.9,1.5C496.8,334.7,498.1,334.2,499.1,333.2"/>
	<polygon class="st2" points="512.2,337.3 510.3,337.3 508.4,337.3 508.4,321.2 511.4,321.2 514.4,321.2 518.5,332.8 518.9,332.8 
		523.3,321.2 526.3,321.2 529.3,321.2 529.3,337.3 527.4,337.3 525.5,337.3 525.5,325.7 525.5,326.3 520.4,337.3 518.4,337.3 
		517,337.3 512.2,326.1 512.2,326.2 	"/>
	<path class="st2" d="M533.4,321.2h1.9h7.1c2.1,0,3.7,0.4,4.8,1.3c1.1,0.9,1.6,2.6,1.6,4.2c0,1.6-0.6,3.1-1.7,4
		c-1.1,0.9-2.6,1.4-4.5,1.4h-5.2v5.2h-2.1h-1.9V321.2z M537.4,329h4.8c0.9,0,1.6-0.1,2.1-0.4c0.4-0.4,0.7-0.7,0.7-2.2
		c0-0.8-0.2-1.1-0.7-1.5c-0.5-0.4-1.2-0.6-2.2-0.6h-4.5V329z"/>
	<path class="st2" d="M555.2,321.2h2.3h2.4l7,16.1h-2.2h-2.2l-1.3-3.2h-7.4l-1.3,3.2h-2.1h-2.1L555.2,321.2z M555.1,330.9h4.9
		l-2.4-5.8h0L555.1,330.9z"/>
	<polygon class="st2" points="573.2,337.3 571.2,337.3 569,337.3 569,321.2 571.5,321.2 573.6,321.2 581.4,332.4 581.4,321.2 
		583.3,321.2 585.5,321.2 585.5,337.3 583.3,337.3 581,337.3 573.2,326.2 	"/>
	<polygon class="st2" points="594.1,331.3 587.3,321.3 589.7,321.3 592.1,321.3 596.1,327.3 596.1,327.3 600.1,321.3 602.4,321.3 
		604.7,321.3 598.2,331.3 598.2,337.4 596.2,337.4 594.1,337.4 	"/>
	<path class="st2" d="M359.9,331.3c-0.3,1.8-1.6,3.8-3.1,4.9c-1.5,1.1-4.4,1.6-6.6,1.6c-2.8,0-5-0.8-6.6-2.3
		c-1.6-1.5-2.5-3.6-2.5-6.2c0-2.6,0.8-4.7,2.5-6.2c1.6-1.5,3.8-2.3,6.6-2.3c2.3,0,5.1,0.5,6.6,1.5c1.5,1,2.5,2.7,2.8,4.5h-4
		c-0.1-0.9-0.9-1.6-1.6-2.1c-0.8-0.5-2.7-0.8-3.9-0.8c-1.5,0-2.7,0.5-3.6,1.5c-0.9,1-1.3,2.1-1.3,3.8c0,1.7,0.4,2.8,1.3,3.8
		c0.9,1,2.1,1.5,3.6,1.5c1.2,0,3.1-0.3,3.8-0.8c0.8-0.5,1.6-1.6,1.8-2.5H359.9z"/>
	<path class="st2" d="M385.1,321.2h1.9h7.1c2.1,0,3.7,0.4,4.8,1.3c1.1,0.9,1.6,2.6,1.6,4.2c0,1.6-0.6,3.1-1.7,4
		c-1.1,0.9-2.6,1.4-4.5,1.4h-5.2v5.2H387h-1.9V321.2z M389.1,329h4.8c0.9,0,1.6-0.1,2.1-0.4c0.4-0.4,0.7-0.7,0.7-2.2
		c0-0.8-0.2-1.1-0.7-1.5c-0.5-0.4-1.2-0.6-2.2-0.6h-4.5V329z"/>
	<path class="st2" d="M161.2,255.5h6.6h25.2c6,0,10.8,1.3,14.5,3.8c3.7,2.5,5.5,5.9,5.5,10c0,4.8-2,8.3-6.1,10.5
		c-1.1,0.6-2.3,1.1-3.7,1.5c0.8,0.3,1.5,0.5,2.1,0.8c3.6,1.7,5.5,4.5,5.6,8.5l0.3,8.2c0.1,1.6,0.3,2.8,0.6,3.4
		c0.4,0.7,1.1,1.2,2.1,1.6v1.4h-14.5c-0.3-0.5-0.6-1.6-0.9-3.3c-0.3-1.7-0.4-3.5-0.4-5.5l-0.1-4.6c-0.1-2.2-0.9-3.8-2.5-4.8
		c-1.6-0.9-4.3-1.4-8-1.4h-13.1v19.7h-6.6h-6.6V255.5z M174.3,277.2h15.3c3.4,0,6-0.5,7.7-1.6c1.7-1.1,2.6-2.7,2.6-5
		c0-2.2-0.8-3.8-2.4-4.9c-1.6-1.1-4-1.6-7.3-1.6h-15.8V277.2z"/>
	<path class="st2" d="M225,299.6c-5.5-4.7-8.2-11-8.2-18.9c0-8.1,2.7-14.6,8.2-19.3c5.5-4.8,12.8-7.2,22.1-7.2
		c9.3,0,16.7,2.4,22.1,7.2c5.4,4.8,8.2,11.2,8.2,19.3c0,7.9-2.7,14.3-8.2,18.9c-5.4,4.7-12.8,7-22.1,7
		C237.8,306.6,230.4,304.2,225,299.6 M259.6,293.2c3-3,4.5-7.2,4.5-12.6c0-5.5-1.5-9.8-4.5-12.9s-7.2-4.7-12.6-4.7
		c-5.3,0-9.5,1.6-12.5,4.7c-3,3.1-4.5,7.4-4.5,12.9c0,5.4,1.5,9.6,4.5,12.6c3,3,7.2,4.5,12.6,4.5
		C252.4,297.7,256.6,296.2,259.6,293.2"/>
	<path class="st2" d="M285,255.5h6.3h24.2c6.1,0,10.8,1.1,14.3,3.3c3.4,2.2,5.1,5.3,5.1,9.3c0,4.1-1.9,7.3-5.8,9.4
		c-0.6,0.4-1.3,0.7-2.1,1c1.5,0.5,2.8,1,3.9,1.6c4,2.2,6.1,5.4,6.1,9.6c0,5.1-2,8.9-6,11.6c-4,2.6-9.8,4-17.5,4h-22.3H285V255.5z
		 M297.5,275h15.1c3.3,0,5.8-0.5,7.4-1.5c1.6-1,2.4-2.4,2.4-4.4c0-1.7-0.9-3-2.6-3.8c-1.7-0.8-4.3-1.3-7.8-1.3h-14.5V275z
		 M297.5,296.6h16c3.4,0,6-0.6,7.7-1.8c1.7-1.2,2.6-2.9,2.6-5.3c0-2.1-0.9-3.6-2.6-4.6c-1.8-1-4.4-1.5-7.9-1.5h-15.8V296.6z"/>
	<polygon class="st2" points="343.3,255.5 349.8,255.5 356.4,255.5 356.4,305.2 349.9,305.2 343.3,305.2 	"/>
	<polygon class="st2" points="378.1,305.2 372,305.2 365.8,305.2 365.8,255.5 372.7,255.5 379.6,255.5 404.8,290.4 404.8,255.5 
		410.9,255.5 417.1,255.5 417.1,305.2 410.6,305.2 404,305.2 378.1,269.4 	"/>
	<path class="st2" d="M463.6,270.4c-0.2-2.4-1.5-4.2-3.9-5.6c-2.4-1.4-5.5-2.1-9.4-2.1c-3.3,0-6,0.6-7.8,1.7
		c-1.9,1.2-2.8,2.8-2.8,4.8c0,1.5,1,2.6,3,3.4c1.9,0.8,6.1,1.8,12.4,2.9c9.2,1.6,15.3,3.5,18.4,5.6c3.1,2.1,4.6,5.5,4.6,10.1
		c0,4.7-2.3,8.4-7,11.1c-4.7,2.7-11,4.1-18.9,4.1c-8,0-14.2-1.5-18.7-4.4c-4.5-2.9-6.9-7.1-7.2-12.4h12.6c0.1,2.6,1.4,4.7,3.7,6.1
		c2.3,1.4,5.5,2.1,9.6,2.1c4.2,0,7.5-0.5,9.9-1.6c2.4-1.1,3.5-2.6,3.5-4.4c0-1.9-0.8-3.2-2.5-4.1c-1.7-0.9-5.2-1.8-10.6-2.7
		c-10-1.8-16.7-3.7-20.1-5.7c-3.3-2-5-5.2-5-9.5c0-4.8,2.2-8.7,6.6-11.5c4.4-2.8,10.4-4.2,18-4.2c7.1,0,12.8,1.5,17.2,4.4
		c4.4,2.9,6.9,6.9,7.4,11.9H463.6z"/>
	<path class="st2" d="M491.8,299.6c-5.5-4.7-8.2-11-8.2-18.9c0-8.1,2.7-14.6,8.2-19.3c5.5-4.8,12.8-7.2,22.1-7.2
		c9.3,0,16.7,2.4,22.1,7.2c5.4,4.8,8.2,11.2,8.2,19.3c0,7.9-2.7,14.3-8.2,18.9c-5.4,4.7-12.8,7-22.1,7
		C504.6,306.6,497.3,304.2,491.8,299.6 M526.5,293.2c3-3,4.5-7.2,4.5-12.6c0-5.5-1.5-9.8-4.5-12.9c-3-3.1-7.2-4.7-12.6-4.7
		c-5.3,0-9.5,1.6-12.5,4.7s-4.5,7.4-4.5,12.9c0,5.4,1.5,9.6,4.5,12.6c3,3,7.2,4.5,12.6,4.5S523.4,296.2,526.5,293.2"/>
	<polygon class="st2" points="563.8,305.2 557.7,305.2 551.5,305.2 551.5,255.5 558.4,255.5 565.3,255.5 590.5,290.4 590.5,255.5 
		596.6,255.5 602.8,255.5 602.8,305.2 596.3,305.2 589.7,305.2 563.8,269.4 	"/>
	<path class="st2" d="M613.8,291c3.9,0,7,3.2,7,7c0,3.9-3.2,7-7,7c-3.9,0-7-3.2-7-7C606.8,294.1,610,291,613.8,291 M618.6,298
		c0-3-2-5-4.8-5c-2.7,0-4.8,1.9-4.8,5c0,3,2,5,4.8,5C616.6,303,618.6,301.1,618.6,298 M611,294.5h2.8c2,0,3.1,0.5,3.1,2.3
		c0,1.4-0.8,1.9-1.9,2l1.6,3h-1.8l-1.4-2.9h-0.7v2.9H611V294.5z M612.7,297.5h1.4c0.6,0,1-0.2,1-0.9c0-0.7-0.8-0.7-1.4-0.7h-1V297.5
		z"/>
</g>
</svg>
