<?xml version="1.0" encoding="utf-8"?>
<!-- Generator: Adobe Illustrator 19.0.0, SVG Export Plug-In . SVG Version: 6.00 Build 0)  -->
<svg version="1.1" id="Layer_1" xmlns="http://www.w3.org/2000/svg" xmlns:xlink="http://www.w3.org/1999/xlink" x="0px" y="0px"
	 viewBox="0 0 500 500" style="enable-background:new 0 0 500 500;" xml:space="preserve">
<style type="text/css">
	.st0{fill:#E22526;}
</style>
<g id="XMLID_1_">
	<path id="XMLID_2_" class="st0" d="M108.1,260.4l-2.5,0.7c-0.6,0.2-1,0.4-1.1,0.9c0,0.1,0,0.2,0,0.3c0,0.6,0.4,1,1,1.1h0l2.6,0.7
		c4.9,1.3,9,5.5,9,10.5c0,0.7-0.1,1.3-0.2,2c-0.9,4.5-4,8.3-9.2,8.3c-0.2,0-0.3,0-0.5,0c-3.4-0.2-6.6-3.2-6.6-6.6
		c0-0.9,0.2-1.8,0.7-2.6c0.4-0.7,1.1-1.1,1.7-1.4c0.8-0.4,1.4-0.8,1.6-1.5c0.1-0.3,0.1-0.7,0.1-1c0-1.2-0.5-2.3-1.5-2.9
		c-0.5-0.3-1-0.5-1.5-0.5c-1.4,0-2.8,1.2-3.8,2.5c-1.4,1.7-2,3.5-2,5.3c0,3,1.6,6,3.6,8.5c2.7,3.3,6.9,4.6,11,4.7h0.2
		c6.2,0,12.2-3.1,14.4-9c0.6-1.5,0.8-3.2,0.8-4.8c0-2.4-0.6-4.7-1.9-6.8c-1.5-2.4-3.8-4.2-6.4-5.2l-0.8-0.3l0.8-0.2
		c3.9-0.9,7.5-2.7,10.4-5.4c4.4-4,7-9.6,7.3-15.5c0.1-1,0.2-2,0.2-3c0-13.7-11.8-24-24.8-27.6c-3-0.8-6-1.2-9.1-1.2
		c-6.9,0-13.7,2.1-19.5,6.2c-7.8,5.5-14.6,13.6-14.6,23.2c0,1.1,0.1,2.3,0.3,3.5c1,5.5,2.3,11.4,7.8,14.1c1.2,0.6,2.5,1.1,3.8,1.1
		c0.8,0,1.5-0.2,2.2-0.7c1.3-0.9,2.1-2.3,2.1-3.8c0-0.6-0.1-1.1-0.4-1.7c-0.8-1.6-2.8-2-4.6-2.2c-0.1,0-0.1,0-0.2,0
		c-0.3,0-0.5,0-0.8,0.1c-0.3,0-0.6,0.1-0.9,0.1c-0.2,0-0.4,0-0.6-0.1c-1.1-0.3-1.7-1.3-2.2-2.1c-0.1-0.2-0.3-0.4-0.4-0.6
		c-1.3-1.8-1.8-3.8-1.8-5.8c0-3.7,1.8-7.6,3.7-10.8c2.3-4,6.1-6.7,10.1-8.7c4-2,8.4-3.1,12.8-3.1c3.6,0,7.3,0.7,10.8,2.2
		c6.1,2.6,11.8,6.8,14,13.3c0.8,2.2,1.2,4.6,1.2,6.9c0,3.9-1.1,7.9-3.5,11.2C117.9,256.7,116.3,258,108.1,260.4"/>
	<path id="XMLID_3_" class="st0" d="M87.5,228.7l-6.2,2.5c-0.4,0.1-0.7,0.4-0.7,0.7c0,0,0,0.1,0,0.2c0.1,0.3,0.3,0.5,0.6,0.5
		c0.1,0,0.1,0,0.2,0l0,0h0l1.9,0h0c0.8,0,1.4,0.6,1.8,1.1l0,0.1c0.7,0.7,1.2,1.6,1.2,2.6l0.2,44.4c0,1.3-0.6,2.4-1.3,3.4
		c-0.6,0.8-1.5,1.4-2.4,1.8l0,0h0l-2.3,0.6c-0.5,0.1-0.8,0.4-0.8,0.8c0,0.4,0.3,0.7,0.8,0.7l12.5,0c0.4,0,0.7-0.3,1-0.7
		c0.3-0.4,0.3-0.8,0.3-1.4l0-58.2c0-0.5,0-0.9-0.3-1.2c-0.2-0.2-0.4-0.2-0.7-0.2h-0.1h-0.1H93L87.5,228.7L87.5,228.7z"/>
	<path id="XMLID_4_" class="st0" d="M150.4,261.4l13.7-0.1h0.1c0.5,0,1,0,1.4-0.3c0.2-0.2,0.2-0.5,0.3-0.8c0-0.1,0-0.3,0.1-0.4
		c0.1-0.5,0.1-0.9,0.1-1.4c0-1.5-0.5-3-0.9-4.5c-2.2-6.5-8.5-10.7-15.4-10.7h-0.1c-5.8,0-10.7,3.7-14.1,8.2
		c-3.1,4.2-3.9,9.4-3.9,14.5v0.3c0,7.5,1.7,15.6,8.1,19.9c2.9,2,6.3,3.3,9.9,3.3c6,0,11.1-3.9,14.4-8.8c1.4-2.1,2.7-4.3,3-6.8
		l0.1-1.1v0c0,0,0-0.1,0-0.2c0-0.2-0.1-0.5-0.4-0.6c-0.1,0-0.2-0.1-0.3-0.1c-0.3,0-0.6,0.2-0.8,0.5l-0.8,1c-1,1.8-2.4,3.4-4,4.7
		c-2.5,1.9-5.4,3.4-8.5,3.4c-0.4,0-0.9,0-1.4-0.1c-3.6-0.5-6.3-2.9-8.5-5.5c-1.5-1.9-2.7-4-3.3-6.4c-0.5-1.6-0.7-3.3-0.7-5
		c0-1,0.1-1.9,0.3-2.9l0-0.2h0.2L150.4,261.4L150.4,261.4z M148,257.4l-7.6,0c-0.4,0-1-0.1-1.2-0.7c-0.1-0.1-0.1-0.3-0.1-0.4
		c0-0.1,0-0.2,0-0.3c0-0.1,0-0.2,0-0.3c0.2-3.7,2.5-7.1,6.1-8.3c0.9-0.3,1.9-0.5,2.8-0.5c1.1,0,2.2,0.2,3.2,0.6
		c2.9,1.3,4.9,4.1,4.9,7.3c0,0.3,0,0.7-0.1,1c0,0.1,0,0.2,0,0.3c0,0.3,0,0.6-0.3,0.9c-0.2,0.2-0.6,0.3-0.8,0.3h-0.2h-0.1h-0.2l0,0
		L148,257.4L148,257.4z"/>
	<path id="XMLID_7_" class="st0" d="M187.4,261.8l13.7-0.1h0.1c0.5,0,1,0,1.4-0.3c0.2-0.2,0.2-0.5,0.3-0.8c0-0.1,0-0.3,0.1-0.4
		c0.1-0.5,0.1-0.9,0.1-1.4c0-1.5-0.5-3-0.9-4.5c-2.2-6.5-8.5-10.7-15.4-10.7h-0.1c-5.8,0-10.7,3.7-14.1,8.2
		c-3.1,4.2-3.9,9.4-3.9,14.5v0.3c0,7.5,1.7,15.6,8.1,19.9c2.9,2,6.3,3.3,9.9,3.3c6,0,11.1-3.9,14.4-8.8c1.4-2.1,2.7-4.3,3-6.8
		l0.1-1.1v0c0,0,0-0.1,0-0.2c0-0.2-0.1-0.5-0.4-0.6c-0.1,0-0.2-0.1-0.3-0.1c-0.3,0-0.6,0.2-0.8,0.5l-0.8,1c-1,1.8-2.4,3.4-4,4.7
		c-2.5,1.9-5.4,3.4-8.5,3.4c-0.4,0-0.9,0-1.4-0.1c-3.6-0.5-6.3-2.9-8.5-5.5c-1.5-1.9-2.7-4-3.3-6.4c-0.5-1.6-0.7-3.3-0.7-5
		c0-1,0.1-1.9,0.3-2.9l0-0.2h0.2L187.4,261.8L187.4,261.8z M185.3,257.5l-7.6,0c-0.4,0-1-0.1-1.2-0.7c-0.1-0.1-0.1-0.3-0.1-0.4
		c0-0.1,0-0.2,0-0.3c0-0.1,0-0.2,0-0.3c0.2-3.7,2.5-7.1,6.1-8.3c0.9-0.3,1.9-0.5,2.8-0.5c1.1,0,2.2,0.2,3.2,0.6
		c2.9,1.3,4.9,4.1,4.9,7.3c0,0.3,0,0.7-0.1,1c0,0.1,0,0.2,0,0.3c0,0.3,0,0.6-0.3,0.9c-0.2,0.2-0.6,0.3-0.8,0.3h-0.2H192h-0.2l0,0
		L185.3,257.5L185.3,257.5z"/>
	<path id="XMLID_10_" class="st0" d="M224,243.4c-5.2,0.9-9.9,3.6-13.3,7.6c-3.3,3.9-5,8.9-5,14c0,0.5,0,1,0,1.4
		c0,5.4,1.5,10.6,4.6,15c1.4,1.9,2.9,3.7,4.8,5c2.7,1.9,5.9,3,9.3,3h0.2c4.8,0,9.1-2.7,12.3-6.2c2.2-2.4,3.7-5.3,4.5-8.5l0.4-1.4
		c0.1-0.2,0.1-0.5,0.1-0.7c0-0.3-0.1-0.6-0.3-0.7c-0.1-0.1-0.3-0.1-0.5-0.1c-0.5,0-0.9,0.4-0.9,0.9v0.1l0,0l-0.7,1.3
		c-0.7,1.5-1.7,2.8-2.9,3.9c-2.4,2.2-5.5,3.3-8.7,3.3c-0.6,0-1.2,0-1.9-0.1c-3.6-0.5-6.6-2.6-8.9-5.2c-3-3.5-3.5-8.1-3.5-12.5v-0.8
		c0-3.7,0.3-7.7,2.6-10.9c1.5-2.1,3.4-4.3,6.1-4.9c0.8-0.2,1.6-0.3,2.5-0.3c1.4,0,2.8,0.3,3.9,1.3c0.8,0.7,1.4,1.7,1.8,2.7
		c0.2,0.5,0.2,1,0.3,1.4c0,0.5,0.1,0.9,0.2,1.3c0.9,2.1,2.9,4,5,4c0.6,0,1.3-0.2,1.9-0.5c1.5-0.8,2.2-2.5,2.4-4.2c0-0.2,0-0.3,0-0.5
		c0-2.2-1.8-3.9-3.5-5.5c-0.1-0.1-0.2-0.2-0.3-0.3c-2.5-2.3-5.7-3.5-9-3.5C226.4,242.9,225.2,243,224,243.4L224,243.4L224,243.4z"/>
	<path id="XMLID_11_" class="st0" d="M244.5,259l-0.2,23.5c0,0.9-0.5,1.7-1,2.3c-0.5,0.6-1.1,1.1-1.8,1.4l0,0h0l-2.3,0.4
		c-0.5,0.1-0.8,0.3-0.8,0.7c0,0.4,0.3,0.7,0.7,0.7l18.7,0.1c0.4,0,0.7-0.3,0.7-0.7v0c0-0.4-0.3-0.8-0.7-0.8h0l-1.6-0.2
		c-1.1-0.1-1.8-1.1-2.4-1.8c-0.5-0.6-0.8-1.3-1-2.1l0,0v0l-0.2-26.4v0c0-0.3,0-0.6,0.1-0.9c0.1-0.3,0.3-0.5,0.5-0.7
		c0.1-0.1,0.1-0.2,0.2-0.2c1.5-1.9,3.5-3.5,5.9-4.2c1.1-0.3,2.4-0.6,3.6-0.6c1.1,0,2.2,0.2,3.2,0.8c2.4,1.3,3.9,3.9,3.9,6.6
		l0.2,25.7v0c0,0.9-0.2,1.8-0.8,2.4c-0.5,0.5-1.1,0.9-1.7,1.1l-1.9,0.6c-0.1,0-0.1,0-0.2,0.1c-0.6,0.2-1,0.4-1,0.7v0
		c0,0.4,0.4,0.7,0.9,0.7l18.1,0c0.5,0,0.9-0.3,1-0.8v-0.1c0-0.5-0.4-0.9-0.9-0.9h-0.1l0,0l0,0l-1.5-0.3c-0.9-0.2-1.6-0.7-2.1-1.3
		c-0.6-0.6-1-1.4-1-2.4l-0.2-24.1c0-2.3-0.4-4.6-1.3-6.8c-1.2-3-3-5.8-5.9-7.2c-1.5-0.7-3.1-1-4.8-1c-1,0-2,0.1-3,0.3
		c-2,0.4-3.9,1.5-5.7,2.5c-1.9,1.1-3.6,2.4-5.1,3.8l-0.4,0.4v-0.6l-0.2-25.6c0-0.4-0.2-0.8-0.6-1c-0.2-0.1-0.4-0.1-0.5-0.1
		c-0.2,0-0.3,0-0.5,0.1L239,228c-0.5,0.2-0.8,0.5-0.8,0.8c0,0.1,0,0.1,0,0.2c0.1,0.3,0.4,0.5,0.7,0.5c0.1,0,0.3,0,0.4-0.1l0.1,0h0.1
		l1.5-0.1c0,0,0.1,0,0.1,0c0.7,0,1.3,0.3,1.8,0.7c0.7,0.5,0.9,1.4,1.1,2.1c0.1,0.3,0.2,0.7,0.3,1l0,0v0L244.5,259L244.5,259z"/>
	<path id="XMLID_12_" class="st0" d="M299.8,243.5c-5.2,0.9-9.9,3.6-13.3,7.6c-3.3,3.9-5,8.9-5,14c0,0.5,0,1,0,1.4
		c0,5.4,1.5,10.6,4.6,15c1.4,1.9,2.9,3.7,4.8,5c2.7,1.9,5.9,3,9.3,3h0.2c4.8,0,9.1-2.7,12.3-6.2c2.2-2.4,3.7-5.3,4.5-8.5l0.4-1.4
		c0.1-0.2,0.1-0.5,0.1-0.7c0-0.3-0.1-0.6-0.3-0.7c-0.1-0.1-0.3-0.1-0.5-0.1c-0.5,0-0.9,0.4-0.9,0.9v0.1l0,0l-0.7,1.3
		c-0.7,1.5-1.7,2.8-2.9,3.9c-2.4,2.2-5.5,3.3-8.7,3.3c-0.6,0-1.2,0-1.9-0.1c-3.6-0.5-6.6-2.6-8.9-5.2c-3-3.5-3.5-8.1-3.5-12.5v-0.8
		c0-3.7,0.3-7.7,2.6-10.9c1.5-2.1,3.4-4.3,6.1-4.9c0.8-0.2,1.6-0.3,2.5-0.3c1.4,0,2.8,0.3,3.9,1.3c0.8,0.7,1.4,1.7,1.8,2.7
		c0.2,0.5,0.2,1,0.3,1.4c0,0.5,0.1,0.9,0.2,1.3c0.9,2.1,2.9,4,5,4c0.6,0,1.3-0.2,1.9-0.5c1.5-0.8,2.2-2.5,2.4-4.2c0-0.2,0-0.3,0-0.5
		c0-2.2-1.8-3.9-3.5-5.5c-0.1-0.1-0.2-0.2-0.3-0.3c-2.5-2.3-5.7-3.5-9-3.5C302.3,243,301,243.2,299.8,243.5L299.8,243.5L299.8,243.5
		z"/>
	<path id="XMLID_13_" class="st0" d="M323.8,245.3l-5.6,2.3c-0.6,0.2-1,0.5-1,0.9l0,0.1c0.1,0.4,0.4,0.7,0.8,0.7
		c0.1,0,0.3,0,0.4-0.1l0.1,0h0.1l1.8,0.1c1,0,1.8,0.5,2.5,1.1c0.9,0.9,1.3,2.1,1.3,3.3l0,29.8c0,1-0.8,1.7-1.4,2.1
		c-0.6,0.5-1.3,0.7-2.1,0.8l-2.2,0.3c-0.7,0.1-1.2,0.3-1.2,0.8v0.1c0.1,0.4,0.4,0.7,0.8,0.7c0.1,0,0.2,0,0.3,0l0,0h0l20.2,0
		c0.1,0,0.3,0,0.4,0c0.4-0.1,0.7-0.3,0.7-0.7v-0.1c0-0.5-0.4-0.9-0.9-0.9c-0.1,0-0.2,0-0.3,0.1l-0.1,0l-0.1,0l-2.2-0.3
		c-0.9-0.1-1.7-0.6-2.4-1.2c-0.9-0.8-1.5-1.8-1.5-3l-0.1-27.8c0-0.9,0.5-1.5,1-2.1c0.1-0.1,0.1-0.2,0.2-0.3c0.5-0.7,1.1-1.3,1.9-1.8
		c0,0,0.1-0.1,0.1-0.1c0.5-0.3,1-0.6,1.7-0.6h0.1c0.5,0,0.9,0.3,1.3,0.6c0.2,0.1,0.3,0.2,0.5,0.3c0.5,0.2,0.9,0.6,1.3,0.9
		c0.8,0.6,1.6,1.2,2.6,1.2h0.1c1.7,0,3.2-0.8,4.1-2.3c0.4-0.7,0.6-1.4,0.6-2.1c0-1.9-1.4-3.8-3.2-4.8c-0.8-0.4-1.6-0.6-2.4-0.6
		c-1.2,0-2.4,0.3-3.5,0.7c-1.3,0.4-2.4,1.3-3.5,2.2c-0.1,0.1-0.2,0.2-0.3,0.2c-0.9,0.7-1.8,1.5-2.6,2.3l-0.4,0.4l0-0.6l0-3.4
		c0-0.6-0.3-1.2-0.8-1.5c-0.2-0.1-0.4-0.2-0.6-0.2c-0.2,0-0.4,0-0.6,0c-0.1,0-0.3,0-0.5,0L323.8,245.3z"/>
	<path id="XMLID_14_" class="st0" d="M377.7,266.9l0-13.3c0-2.2-0.5-4.5-1.8-6.3c-1.6-2.3-4.2-3.6-6.9-4.1c-1.8-0.4-3.8-0.6-5.7-0.6
		c-1.9,0-3.6,0.2-5,0.6c-3.7,1.2-7.4,2.9-9,6.4l0,0.1c-0.5,1.1-1,2.3-1,3.4c0,0.3,0,0.5,0.1,0.8c0.5,2.1,1.8,4,3.9,4h0.1
		c2.1-0.1,3.3-2,3.7-4c0-0.2,0.1-0.4,0.1-0.6c0-0.3,0-0.7-0.1-1c-0.1-0.4-0.1-0.8-0.1-1.1c0-0.1,0-0.3,0-0.4
		c0.1-0.9,0.2-1.8,0.7-2.6c1.1-2.2,3.6-3,5.9-3.1c0.1,0,0.2,0,0.3,0c2,0,4.1,0.8,5.5,2.3c1.1,1.2,1.7,2.8,1.7,4.4v0l0,7.8l-15.4,6.1
		c-2.2,0.9-4.3,2.1-5.8,3.9c-1.9,2.3-3,5.1-3,7.9c0,1.4,0.3,2.9,0.9,4.3c1.7,3.9,5.3,6.5,9.5,6.9c0.3,0,0.7,0,1,0
		c4,0,7.7-2.1,9.8-5.5c1-1.6,1.5-3.5,1.7-5.5c0.1-0.8,0.1-1.5,0.1-2.2c0-1.2-0.2-2.4-0.8-3.5c-0.7-1.1-2.1-2.3-3.4-2.3
		c-0.6,0-1.1,0.2-1.6,0.7c-0.5,0.5-0.7,1.1-0.7,1.8c0,0.7,0.2,1.4,0.7,2c0.2,0.3,0.6,0.4,1,0.6c0.4,0.2,0.8,0.4,1.1,0.8
		c0.6,0.7,0.8,1.6,0.8,2.5c0,0.1,0,0.1,0,0.2c0,1.2-0.7,2.2-1.4,3c-1.1,1.2-2.6,1.8-4.1,1.8c-0.5,0-1-0.1-1.4-0.2
		c-2.2-0.5-3.7-2.4-4.5-4.3c-0.4-1-0.6-2-0.6-3c0-1.4,0.4-2.8,1-4.2c1-2,2.6-3.5,4.6-4.4l0,0l10.5-3.6l0.1,19c0,1.9,0.3,3.8,1.6,5.2
		c1.2,1.2,2.9,1.7,4.7,1.7c2.1,0,4-0.9,5.4-2.5l2.2-2.5c0.1-0.1,0.2-0.2,0.3-0.3c0.4-0.4,0.8-0.9,0.8-1.3c0-0.1,0-0.3-0.2-0.5
		c-0.2-0.2-0.5-0.4-0.8-0.4c-0.4,0-0.8,0.2-1,0.5l0,0.1l-0.1,0l-2.1,0.9c-0.2,0.1-0.5,0.1-0.7,0.1c-0.5,0-1.1-0.2-1.5-0.5
		c-0.6-0.5-0.7-1.2-0.9-1.8c0-0.2-0.1-0.5-0.1-0.7l0,0v0L377.7,266.9L377.7,266.9z"/>
	<path id="XMLID_15_" class="st0" d="M390.1,264.6l0,18.8c0,0.7,0,1.6-0.5,2.2c-0.4,0.5-1,0.9-1.7,1l-1.3,0.2
		c-0.7,0.1-1.2,0.2-1.2,0.7c0,0.5,0.3,0.8,0.8,0.8c0.1,0,0.2,0,0.3,0l0,0h0l15.7,0.1c0.1,0,0.3,0,0.4-0.1c0.4-0.1,0.7-0.4,0.7-0.8
		l0,0c0-0.5-0.4-0.8-0.9-0.8c-0.1,0-0.1,0-0.2,0l-0.1,0l-0.1,0l-1.4-0.4c-0.8-0.2-1.4-0.7-1.9-1.3c-0.5-0.6-1-1.4-1-2.3l-0.1-32.5
		c0-0.1,0-0.2,0-0.4c0-0.1,0-0.3,0-0.5c0-0.3,0.1-0.7,0.3-1.1c0.4-0.4,0.9-0.6,1.4-0.6l12.3,0c0.6,0,1.1,0.3,1.4,0.7
		c0.3,0.4,0.4,0.8,0.4,1.3c0,0.2,0,0.4-0.1,0.5l0,28.3c0,2.8,0.2,5.6,2,7.7c1.7,2,4.1,3.3,6.7,3.4h0.1c2.5,0,4.8-1.3,6.7-3
		c0.9-0.8,1.6-1.6,2.2-2.6l0.8-1.1c0.2-0.3,0.5-0.8,0.5-1.1c0-0.2-0.1-0.3-0.3-0.5c-0.1-0.1-0.3-0.1-0.4-0.1c-0.3,0-0.6,0.2-0.7,0.5
		l0,0l0,0l-1,0.8l0,0c-0.4,0.3-0.8,0.7-1.3,0.9c-0.7,0.3-1.4,0.5-2.1,0.5c-0.6,0-1.1-0.1-1.7-0.3c-1.2-0.4-2.3-1.2-3-2.3
		c-0.7-1.1-1-2.4-1-3.7l-0.1-27.8c0-0.2,0-0.3-0.1-0.5c0-0.2-0.1-0.4-0.1-0.6c0-0.3,0.1-0.6,0.3-0.9c0.3-0.3,0.8-0.5,1.2-0.5l5.8,0
		c1,0,1.8-0.7,1.8-1.7c0-0.9-0.8-1.6-1.7-1.6c-0.1,0-0.1,0-0.2,0h0l-5.1,0h-0.1h-0.1c-0.4,0-0.8,0-1.1-0.3c-0.5-0.3-0.8-0.9-0.8-1.4
		c0-0.1,0-0.1,0-0.2l0-8.8c0-0.7-0.1-1.2-0.6-1.4c-0.1,0-0.1,0-0.2,0c-0.3,0-0.5,0.3-0.7,0.9c-0.1,0.2-0.2,0.5-0.3,0.6
		c-0.3,0.5-0.5,1-0.7,1.6c-0.1,0.4-0.3,0.9-0.5,1.4c-0.8,1.6-1.9,3.2-3.3,4.4c-1.5,1.3-3.3,2.1-5.1,2.7c-1.4,0.4-2.9,0.7-4.4,0.7
		h-0.2l-5,0c-0.5,0-1.2-0.1-1.6-0.5c-0.3-0.3-0.5-0.8-0.5-1.3c0-0.1,0-0.2,0-0.2l0-8.7c0-1.1,0.3-2.2,0.9-3.2
		c0.7-1.2,1.6-2.3,2.9-2.8c0.4-0.1,0.8-0.2,1.2-0.2c1.2,0,2.4,0.5,3.5,1.1c1,0.5,1.8,1.4,2.6,2.2c0.4,0.4,0.6,0.9,0.9,1.3
		c0.3,0.6,0.7,1.2,1.2,1.5c0.9,0.7,2.1,1.1,3.2,1.1c0.8,0,1.5-0.2,2.2-0.7c0.9-0.7,1.3-1.7,1.3-2.8c0-0.9-0.2-1.8-0.6-2.7
		c-0.6-1.4-1.9-2.3-3.3-3.2l-0.1-0.1c-2-1.3-4.3-1.8-6.7-1.8c-0.8,0-1.6,0-2.3,0.1c-3.9,0.5-7.4,2.3-10,5.3c-1.7,2-2.7,4.4-3.4,6.8
		c-0.3,1.2-0.4,2.5-0.4,3.7c0,1-0.1,2.1-0.3,3.1c0,0.1,0,0.3,0,0.4c0,0.3,0,0.7-0.3,1c-0.3,0.4-0.8,0.5-1.2,0.5c-0.1,0-0.2,0-0.3,0
		l-3.3,0.1c-0.9,0-1.6,0.7-1.6,1.5v0c0,0.9,0.7,1.6,1.6,1.6h3c0.5,0,1.2,0,1.6,0.5c0.5,0.5,0.5,1.2,0.5,1.7v0L390.1,264.6
		L390.1,264.6z"/>
</g>
</svg>
